Coordinates
version=1
nRows=12
nColumns=34
inDegrees=no

Units are S.I. units (second, meters, Newtons, ...)
If the header above contains a line with 'inDegrees', this indicates whether rotational values are in degrees (yes) or radians (no).

endheader
time	pelvis_tilt	pelvis_list	pelvis_rotation	pelvis_tx	pelvis_ty	pelvis_tz	hip_flexion_r	hip_adduction_r	hip_rotation_r	knee_angle_r	ankle_angle_r	subtalar_angle_r	mtp_angle_r	hip_flexion_l	hip_adduction_l	hip_rotation_l	knee_angle_l	ankle_angle_l	subtalar_angle_l	mtp_angle_l	lumbar_extension	lumbar_bending	lumbar_rotation	arm_flex_r	arm_add_r	arm_rot_r	elbow_flex_r	pro_sup_r	arm_flex_l	arm_add_l	arm_rot_l	elbow_flex_l	pro_sup_l
0	0.0157098	-0.0486459	0.0119083	-0.129626	0.993512	-0.244673	0.382344	0.039788	-0.0284533	-0.0126516	-0.04417	0.0697801	-0.0220181	-0.233896	-0.00104406	-0.0353402	0.25486	0.453018	0.157401	-0.0220206	-0.0789946	0.0982729	-0.104068	-0.225289	-0.189118	-0.0213447	0.365928	1.68483	0.159262	-0.246335	0.0423249	1.0072	1.64577
0.01	0.019859	-0.0628306	0.0158903	-0.112814	1.00037	-0.243166	0.361278	0.0585816	-0.020852	-0.0162587	-0.0742618	0.0497331	-0.0220168	-0.241698	-0.0213535	-0.0449577	0.283436	0.446988	0.155592	-0.0220193	-0.0784039	0.11495	-0.106113	-0.230157	-0.189383	-0.0316892	0.365814	1.68388	0.147811	-0.241467	0.0419315	1.00623	1.64693
0.02	0.0223823	-0.0774426	0.019014	-0.096216	1.00633	-0.241519	0.343199	0.0778217	-0.013533	-0.0184361	-0.102623	0.0286577	-0.0220155	-0.243856	-0.0434268	-0.0550783	0.3178	0.434461	0.153427	-0.0220179	-0.0762069	0.131853	-0.107232	-0.234638	-0.189688	-0.0414128	0.366614	1.68276	0.136176	-0.236119	0.0415744	1.0033	1.6478
0.03	0.0232546	-0.0924763	0.021262	-0.0798563	1.01145	-0.239733	0.328142	0.0974847	-0.00651251	-0.0191489	-0.129151	0.00664582	-0.0220142	-0.240331	-0.0672325	-0.0656256	0.357967	0.415412	0.150859	-0.0220166	-0.0724186	0.148966	-0.107416	-0.238709	-0.190035	-0.0504893	0.368319	1.68148	0.12437	-0.230289	0.0412433	0.998394	1.6484
0.04	0.0224396	-0.107895	0.0225966	-0.0637696	1.01579	-0.237815	0.316191	0.117511	0.000151731	-0.0183012	-0.153541	-0.0160253	-0.0220129	-0.231025	-0.0926768	-0.0763534	0.403948	0.389795	0.147741	-0.0220153	-0.0670861	0.166248	-0.106643	-0.242299	-0.190443	-0.0588483	0.370902	1.68	0.112432	-0.223974	0.0409056	0.991531	1.64868
0.05	0.0199122	-0.123624	0.0229777	-0.0480033	1.01941	-0.235775	0.30743	0.137793	0.0063355	-0.0157427	-0.175249	-0.0388279	-0.0220116	-0.215817	-0.119565	-0.0867799	0.455684	0.357576	0.143789	-0.022014	-0.0603164	0.183635	-0.104899	-0.245284	-0.190944	-0.0663708	0.37431	1.67829	0.100433	-0.217171	0.0405006	0.982754	1.64857
0.06	0.0156969	-0.139537	0.0223975	-0.0326067	1.02238	-0.233634	0.301818	0.158165	0.0118441	-0.0113199	-0.193545	-0.0609626	-0.0220103	-0.194634	-0.147564	-0.0961789	0.512946	0.318804	0.138589	-0.0220127	-0.0522952	0.201024	-0.102201	-0.247493	-0.191584	-0.0728974	0.378464	1.67627	0.088468	-0.209883	0.0399428	0.972154	1.64801
0.07	0.00991852	-0.155462	0.0209131	-0.017624	1.02478	-0.231425	0.299084	0.178397	0.0164229	-0.00496846	-0.207635	-0.0814147	-0.0220091	-0.16756	-0.176185	-0.103646	0.575244	0.273707	0.131642	-0.0220114	-0.043316	0.218266	-0.098623	-0.248726	-0.192422	-0.0782443	0.383267	1.6739	0.0766483	-0.202121	0.0391372	0.959875	1.64687
0.08	0.00284522	-0.17118	0.0186678	-0.00308644	1.0267	-0.229192	0.298684	0.198203	0.0198028	0.0031752	-0.216836	-0.0990989	-0.0220078	-0.134922	-0.204792	-0.108228	0.641778	0.222818	0.122444	-0.0220101	-0.0337868	0.235163	-0.094307	-0.248779	-0.193517	-0.0822319	0.388622	1.67117	0.065084	-0.19392	0.038003	0.946107	1.64507
0.09	-0.00510329	-0.186448	0.0158914	0.0109966	1.02823	-0.226984	0.29983	0.217285	0.0217893	0.0126801	-0.220779	-0.113106	-0.0220065	-0.0972858	-0.23268	-0.109098	0.711463	0.1671	0.110598	-0.0220088	-0.0241763	0.251502	-0.0894651	-0.247479	-0.194921	-0.0847292	0.394457	1.66815	0.0538695	-0.18534	0.0365051	0.93106	1.64253
0.1	-0.0134511	-0.200998	0.0128882	0.0246364	1.02948	-0.224851	0.301558	0.235356	0.0223384	0.0228136	-0.219533	-0.122888	-0.0220052	-0.0554423	-0.259137	-0.105703	0.783003	0.108063	0.0959072	-0.0220075	-0.0149679	0.267069	-0.0843576	-0.244709	-0.196664	-0.0856803	0.400744	1.66496	0.0430696	-0.17647	0.0346797	0.914938	1.63918
0.11	-0.0217231	-0.214594	0.00999818	0.0378645	1.03054	-0.222837	0.302827	0.25215	0.0215675	0.0326401	-0.213599	-0.128293	-0.0220039	-0.0103676	-0.283485	-0.0978718	0.854979	0.0478027	0.0784202	-0.0220062	-0.00661976	0.28163	-0.0792554	-0.240424	-0.198754	-0.0851104	0.407503	1.66183	0.0327149	-0.167434	0.0326503	0.897909	1.63503
